<svg width="162" height="42" viewBox="0 0 162 42" fill="none" xmlns="http://www.w3.org/2000/svg">
<path d="M5.65057 10.162L6.16854 13.5183C7.1417 12.3685 8.47586 11.4206 10.171 10.6748C11.8976 9.92897 13.6399 9.55605 15.3978 9.55605C20.7345 9.55605 23.4028 13.6582 23.4028 21.8624C23.4028 26.2752 22.6808 29.3674 21.2367 31.1387C19.8241 32.879 17.5953 33.7492 14.5502 33.7492C11.411 33.7492 8.82117 33.0033 6.78069 31.5117C6.93765 33.0966 6.98473 34.7436 6.92195 36.4528V42H0V10.162H5.65057ZM6.92195 17.1543V27.6892C9.37053 28.3108 11.1285 28.6215 12.1958 28.6215C13.734 28.6215 14.7857 28.1865 15.3507 27.3163C15.9472 26.4462 16.2454 24.6282 16.2454 21.8624C16.2454 19.1587 15.9786 17.3407 15.4449 16.4084C14.9112 15.4451 13.9695 14.9634 12.6196 14.9634C11.0814 14.9634 9.18218 15.6937 6.92195 17.1543Z" fill="#7B61FF"/>
<path d="M31.3652 0H34.473C35.8228 0 36.4978 0.668146 36.4978 2.00444V4.52164C36.4978 5.85793 35.8228 6.52608 34.473 6.52608H31.3652C30.0153 6.52608 29.3404 5.85793 29.3404 4.52164V2.00444C29.3404 0.668146 30.0153 0 31.3652 0ZM36.4036 33.1432H29.4816V10.162H36.4036V33.1432Z" fill="#7B61FF"/>
<path d="M53.9135 23.4939H53.6309L48.1216 33.1432H40.9642L48.1216 21.3496L41.4822 10.162H48.5925L53.5368 19.0189H54.0076L58.9519 10.162H66.0622L59.4228 21.3496L66.5802 33.1432H59.4228L53.9135 23.4939Z" fill="#7B61FF"/>
<path d="M85.7892 23.96H77.4075C77.6273 25.6382 78.1296 26.7725 78.9144 27.3629C79.7306 27.9223 81.0647 28.202 82.9169 28.202C85.3968 28.202 88.2849 28.0311 91.5811 27.6892L92.2403 31.9778C89.8231 33.1276 86.4485 33.7026 82.1164 33.7026C77.7529 33.7026 74.6451 32.7703 72.7929 30.9057C70.9408 29.0411 70.0147 25.9645 70.0147 21.6759C70.0147 17.1698 70.9094 14.0155 72.6988 12.2131C74.5195 10.4107 77.5645 9.50943 81.8338 9.50943C85.6951 9.50943 88.489 10.1776 90.2155 11.5139C91.9421 12.8191 92.8211 14.8235 92.8524 17.5272C92.8524 19.6715 92.2874 21.2875 91.1573 22.3751C90.0586 23.4317 88.2692 23.96 85.7892 23.96ZM77.2663 19.8113H83.8586C84.7062 19.8113 85.2713 19.6093 85.5538 19.2053C85.8677 18.8013 86.0247 18.2109 86.0247 17.434C86.0247 16.3463 85.7421 15.6004 85.1771 15.1964C84.612 14.7614 83.5761 14.5438 82.0693 14.5438C80.2799 14.5438 79.0556 14.9012 78.3964 15.616C77.7372 16.2997 77.3605 17.6981 77.2663 19.8113Z" fill="white"/>
<path d="M103.968 10.162L104.439 13.5183C107.39 10.8457 110.34 9.50943 113.291 9.50943C116.431 9.50943 118.424 10.7525 119.272 13.2386C122.003 10.7525 124.828 9.50943 127.747 9.50943C129.851 9.50943 131.452 10.0533 132.55 11.141C133.649 12.2286 134.198 13.8135 134.198 15.8957V33.1432H127.276V18.04C127.276 17.0455 127.104 16.3463 126.759 15.9423C126.413 15.5383 125.77 15.3363 124.828 15.3363C124.075 15.3363 123.352 15.4761 122.662 15.7558C121.971 16.0355 120.967 16.5794 119.648 17.3873V33.1432H112.962V18.04C112.962 17.0455 112.758 16.3463 112.35 15.9423C111.973 15.5383 111.345 15.3363 110.466 15.3363C109.242 15.3363 107.531 16.0044 105.333 17.3407V33.1432H98.4115V10.162H103.968Z" fill="white"/>
<path d="M141.423 15.2897L140.763 10.6282C144.938 9.88235 148.972 9.50943 152.865 9.50943C156.004 9.50943 158.311 10.1465 159.787 11.4206C161.262 12.6637 162 14.8391 162 17.9467V33.1432H156.491L155.784 29.6471C153.461 32.3507 150.605 33.7026 147.214 33.7026C144.985 33.7026 143.165 33.1276 141.752 31.9778C140.339 30.7969 139.633 29.1654 139.633 27.0832V24.7525C139.633 22.919 140.261 21.4895 141.517 20.4639C142.772 19.4384 144.515 18.9256 146.743 18.9256H155.031V17.9001C155 16.7192 154.717 15.9267 154.183 15.5228C153.681 15.1188 152.692 14.9168 151.217 14.9168C148.643 14.9168 145.378 15.0411 141.423 15.2897ZM146.508 25.2653V26.1509C146.508 27.7358 147.418 28.5283 149.239 28.5283C151.123 28.5283 153.053 27.7825 155.031 26.2908V23.0744H148.768C147.261 23.1054 146.508 23.8357 146.508 25.2653Z" fill="white"/>
</svg>
